<?xml version="1.0" encoding="UTF-8"?>
<svg width="884px" height="665px" viewBox="0 0 884 665" version="1.1" xmlns="http://www.w3.org/2000/svg" xmlns:xlink="http://www.w3.org/1999/xlink">
    <title>Group</title>
    <defs>
        <linearGradient x1="20.7308065%" y1="-11.6651132%" x2="82.5981396%" y2="118.682359%" id="linearGradient-1">
            <stop stop-color="#FF5243" offset="0%"></stop>
            <stop stop-color="#FF5141" offset="17.7857299%"></stop>
            <stop stop-color="#E84537" offset="22%"></stop>
            <stop stop-color="#D94032" offset="31%"></stop>
            <stop stop-color="#D04033" offset="41%"></stop>
            <stop stop-color="#C63527" offset="53%"></stop>
            <stop stop-color="#B53327" offset="68%"></stop>
            <stop stop-color="#A13228" offset="100%"></stop>
        </linearGradient>
        <linearGradient x1="23.2377331%" y1="133.835453%" x2="71.276923%" y2="-16.638808%" id="linearGradient-2">
            <stop stop-color="#FFB1AA" offset="0%"></stop>
            <stop stop-color="#F24C3D" offset="32%"></stop>
            <stop stop-color="#E84637" offset="70%"></stop>
            <stop stop-color="#4F1611" offset="100%"></stop>
        </linearGradient>
        <linearGradient x1="15.6902191%" y1="133.835453%" x2="77.2774564%" y2="-16.638808%" id="linearGradient-3">
            <stop stop-color="#FFB1AA" offset="0%"></stop>
            <stop stop-color="#F24C3D" offset="32%"></stop>
            <stop stop-color="#E84637" offset="70%"></stop>
            <stop stop-color="#A42D22" offset="100%"></stop>
        </linearGradient>
    </defs>
    <g id="BLACK" stroke="none" stroke-width="1" fill="none" fill-rule="evenodd">
        <g id="Logo-Copy-10" transform="translate(-518.000000, -628.000000)">
            <g id="Group" transform="translate(518.000000, 628.000000)">
                <path d="M184.011909,176.675694 C207.460575,152.569898 232.14777,152.427049 249.225163,161.426546 C291.192202,183.532454 299.409358,251.445328 303.482209,300.025948 C306.745254,338.833304 311.818454,372.783789 318.201636,410.757859 C325.156447,452.148404 332.647158,527.513243 344.186903,562.261302 C351.427527,584.081512 364.944153,596.449869 381.521372,604.223244 C436.4215,629.98371 561.238906,649.470717 593,581.319761 C569.551334,605.437462 544.85223,605.568407 527.774837,596.56891 C485.807798,574.463001 477.590642,506.550128 473.505882,457.969508 C470.242837,419.162151 465.169637,385.211667 458.798364,347.237597 C451.843553,305.847052 444.352842,230.482213 432.813097,195.734154 C425.572473,173.925848 412.055847,161.545587 395.466719,153.772212 C340.5785,128.02365 215.761094,108.524739 184,176.675694 L184.011909,176.675694 Z" id="Path-Copy" fill="url(#linearGradient-1)"></path>
                <path d="M301.988101,284.607901 C270.825618,347.633599 228.847289,430.358546 198.482013,491.943997 C198.232142,493.40805 197.779994,494.848297 197.089874,496.240933 L160.454026,569.979214 C156.634569,577.668468 147.139471,580.989368 139.488659,577.09713 L139.488659,577.09713 C131.837847,573.192989 128.589524,563.932556 132.420879,556.231398 C148.174651,524.522152 162.48869,494.324571 178.052084,462.996216 C181.871541,455.306962 178.635116,446.034626 170.984304,442.142388 L170.984304,442.142388 C163.333492,438.250149 153.838394,441.57105 150.018937,449.260304 C132.694547,484.111908 115.417752,518.999221 98.0933627,553.850824 C94.2739059,561.551981 84.7788078,564.860979 77.1279956,560.968741 L77.1279956,560.968741 C69.4771835,557.076502 66.2407591,547.804166 70.0602158,540.114912 C84.7193147,510.607697 99.0690495,481.421859 113.704351,451.974159 C117.523808,444.284904 114.287383,435.024471 106.624673,431.12033 L106.624673,431.12033 C98.9738605,427.228091 89.4787624,430.548992 85.6593056,438.238246 C73.5465113,462.627227 61.3623252,485.885436 49.3566184,510.048262 C45.5371616,517.737516 36.8749669,518.427883 28.3912514,517.166179 L28.3912514,517.166179 C19.9075359,515.892571 17.5040148,504.001604 21.3234716,496.300447 L29.9856663,478.850839 L29.5216202,478.779422 C74.6887787,385.782297 90.1569837,353.537422 137.453995,261.58775 C150.137923,236.936906 164.261584,205.834706 179.491817,183.469213 C181.657365,180.303049 183.894306,177.351138 186.178841,174.613478 C208.952798,152.628876 232.666746,152.759808 249.205827,161.484612 C286.829261,181.326696 297.300045,238.043873 302,284.584095 L301.988101,284.607901 Z M22.9535824,541.709897 L1.60745954,584.667355 C-2.21199722,592.35661 1.0244272,601.628945 8.67523935,605.533087 L8.67523935,605.533087 C16.3260515,609.413422 25.8211496,606.104425 29.6406064,598.41517 L50.9867292,555.457712 C54.806186,547.768458 51.5697616,538.496122 43.9189494,534.603883 L43.9189494,534.603883 C36.2681373,530.723548 26.7730392,534.032546 22.9535824,541.7218 L22.9535824,541.709897 Z M40.8253084,610.746544 L25.0477394,642.503402 C21.2282826,650.192656 24.464707,659.464992 32.1155192,663.369133 L32.1155192,663.369133 C39.7663313,667.249469 49.2614295,663.940471 53.0808862,656.251217 L68.8584553,624.494359 C72.6779121,616.805105 69.4414876,607.532769 61.7906755,603.652433 L61.7906755,603.652433 C54.1398633,599.748292 44.6447652,603.069193 40.8253084,610.758447 L40.8253084,610.746544 Z M96.3799615,576.751947 L87.6225778,594.380097 C83.803121,602.069352 87.0395454,611.341687 94.6903576,615.233926 L94.6903576,615.233926 C102.34117,619.126165 111.836268,615.805264 115.655725,608.11601 L124.413108,590.487859 C128.232565,582.798605 124.996141,573.526269 117.345329,569.63403 L117.345329,569.63403 C109.682618,565.741792 100.199418,569.05079 96.3799615,576.751947 Z" id="Shape-Copy" fill="url(#linearGradient-2)"></path>
                <path d="M627.758941,163.794172 L535.663922,150.016535 L884,0 C799.015828,173.90095 722.299806,342.486307 627.460667,511.691419 C623.797865,518.234605 613.21511,521.988892 605.424199,517.75787 C599.947892,514.802114 594.340344,507.269703 599.971754,496.650435 L648.208593,405.689428 C654.55586,393.735302 650.320372,385.213667 644.056622,381.447462 C636.957705,377.180685 626.876051,379.171053 619.896444,392.317016 L570.084718,486.233779 C555.003995,514.671012 529.257,498.140231 541.736776,473.218918 C559.979202,436.808295 579.188035,400.04012 598.587763,363.46264 C612.069739,338.016918 584.00814,324.179689 570.275614,350.078309 L535.926403,414.842737 C532.048843,422.148698 523.697177,426.927965 517.230601,426.117516 C508.389765,424.997189 502.245325,415.152615 508.389765,402.757509 C548.060181,323.035526 588.052732,243.4804 627.770872,163.758417 L627.758941,163.794172 Z M501.398227,452.42136 L492.617046,470.072468 C488.77528,477.783654 492.03243,487.056146 499.704032,490.953454 L499.704032,490.953454 C507.375634,494.850761 516.896534,491.525535 520.72637,483.826268 L529.519481,466.17516 C533.349317,458.475893 530.104098,449.191482 522.432496,445.294175 L522.432496,445.294175 C514.760893,441.396867 505.239994,444.710174 501.410158,452.42136 L501.398227,452.42136 Z M554.574481,519.462197 L533.170353,562.487516 C529.340517,570.186784 532.585736,579.471195 540.269269,583.356583 L540.269269,583.356583 C547.940871,587.265809 557.461771,583.928665 561.291607,576.229398 L582.695735,533.204079 C586.525571,525.504811 583.280352,516.2204 575.608749,512.323093 L575.608749,512.323093 C567.937147,508.425785 558.416247,511.751011 554.586412,519.450279 L554.574481,519.462197 Z" id="Shape-Copy-2" fill="url(#linearGradient-3)"></path>
            </g>
        </g>
    </g>
</svg>